<?xml version="1.0" encoding="UTF-8"?>
<!DOCTYPE svg PUBLIC "-//W3C//DTD SVG 1.1//EN" "http://www.w3.org/Graphics/SVG/1.1/DTD/svg11.dtd">
<!-- Creator: CorelDRAW -->
<svg xmlns="http://www.w3.org/2000/svg" xml:space="preserve" width="6.82666in" height="6.82666in" style="shape-rendering:geometricPrecision; text-rendering:geometricPrecision; image-rendering:optimizeQuality; fill-rule:evenodd; clip-rule:evenodd"
viewBox="0 0 6.82666 6.82666"
 xmlns:xlink="http://www.w3.org/1999/xlink">
 <defs>
  <style type="text/css">
   <![CDATA[
    .fil2 {fill:none}
    .fil12 {fill:#0288D1}
    .fil10 {fill:#29B6F6}
    .fil3 {fill:#424242}
    .fil1 {fill:#4E342E}
    .fil13 {fill:#4FC3F7}
    .fil9 {fill:#6690B5}
    .fil0 {fill:#6D4C41}
    .fil14 {fill:#7CB342}
    .fil8 {fill:#85BCEB}
    .fil15 {fill:#9CCC65}
    .fil5 {fill:#B88052}
    .fil6 {fill:#CF976A}
    .fil4 {fill:#E6A875}
    .fil7 {fill:white}
    .fil11 {fill:#039BE5;fill-rule:nonzero}
   ]]>
  </style>
   <clipPath id="id0">
    <path d="M3.41333 0c1.88513,0 3.41333,1.5282 3.41333,3.41333 0,1.88513 -1.5282,3.41333 -3.41333,3.41333 -1.88513,0 -3.41333,-1.5282 -3.41333,-3.41333 0,-1.88513 1.5282,-3.41333 3.41333,-3.41333z"/>
   </clipPath>
 </defs>
 <g id="Layer_x0020_1">
  <metadata id="CorelCorpID_0Corel-Layer"/>
  <path class="fil0" d="M3.41333 0c1.88513,0 3.41333,1.5282 3.41333,3.41333 0,1.88513 -1.5282,3.41333 -3.41333,3.41333 -1.88513,0 -3.41333,-1.5282 -3.41333,-3.41333 0,-1.88513 1.5282,-3.41333 3.41333,-3.41333z"/>
  <g style="clip-path:url(#id0)">
   <g id="_435566752">
    <g>
     <polygon id="_4312195521" class="fil1" points="1.74193,2.72608 5.5282,6.51235 5.52209,6.51417 5.51596,6.51567 5.50982,6.51683 5.50367,6.51768 5.49753,6.51821 5.49141,6.51843 5.48531,6.51835 5.47925,6.51796 5.47324,6.51728 5.46728,6.51631 5.46139,6.51506 5.45558,6.51353 5.44986,6.51173 5.44423,6.50966 5.43872,6.50732 5.43332,6.50473 5.42806,6.50188 5.42293,6.49879 5.41795,6.49546 5.41313,6.49189 5.40848,6.48808 5.40402,6.48406 1.61775,2.69778 1.62222,2.70181 1.62686,2.70561 1.63168,2.70919 1.63666,2.71252 1.64179,2.71561 1.64706,2.71846 1.65245,2.72105 1.65796,2.72339 1.66359,2.72546 1.66931,2.72726 1.67512,2.72879 1.68101,2.73004 1.68697,2.73101 1.69298,2.73169 1.69904,2.73207 1.70514,2.73216 1.71126,2.73194 1.71741,2.73141 1.72356,2.73056 1.7297,2.7294 1.73583,2.7279 "/>
     <polygon id="_431219984" class="fil1" points="2.71163,2.51451 6.4979,6.30078 5.57032,6.60126 1.78406,2.81498 "/>
     <polygon id="_431220608" class="fil1" points="3.76233,2.17415 7.54859,5.96042 6.62308,6.26023 2.83681,2.47396 "/>
     <polygon id="_431220128" class="fil1" points="2.83681,2.47396 6.62308,6.26023 7.21921,8.05509 3.43294,4.26882 "/>
     <polygon id="_431220080" class="fil1" points="3.61509,1.62656 7.40136,5.41283 7.46943,5.62196 3.68316,1.83569 "/>
     <polygon id="_431220272" class="fil1" points="3.78595,1.80239 7.57222,5.58866 7.61041,5.70709 3.82414,1.92081 "/>
     <polygon id="_431221568" class="fil1" points="3.82414,1.92081 7.61041,5.70709 7.6125,5.71411 7.61419,5.72104 7.6155,5.7279 7.61641,5.73467 7.61695,5.74134 7.61712,5.74791 7.61693,5.75438 7.61639,5.76074 7.6155,5.76698 7.61428,5.77311 7.61273,5.77911 7.61086,5.78498 7.60867,5.79073 7.60619,5.79633 7.6034,5.80179 7.60033,5.8071 7.59698,5.81226 7.59335,5.81726 7.58947,5.82209 7.58533,5.82676 7.58094,5.83126 7.57631,5.83557 7.57144,5.83971 7.56636,5.84366 7.56106,5.84741 7.55555,5.85097 7.54985,5.85433 7.54395,5.85747 7.53787,5.86041 7.53161,5.86313 7.52519,5.86563 7.51861,5.8679 3.73234,2.08163 3.73893,2.07935 3.74535,2.07686 3.7516,2.07414 3.75768,2.0712 3.76358,2.06806 3.76928,2.0647 3.77479,2.06114 3.78009,2.05739 3.78518,2.05344 3.79004,2.0493 3.79467,2.04498 3.79906,2.04049 3.8032,2.03582 3.80709,2.03098 3.81071,2.02598 3.81406,2.02083 3.81713,2.01552 3.81992,2.01006 3.82241,2.00446 3.82459,1.99871 3.82646,1.99284 3.82801,1.98684 3.82924,1.98071 3.83012,1.97446 3.83067,1.96811 3.83085,1.96164 3.83069,1.95507 3.83015,1.94839 3.82923,1.94163 3.82793,1.93477 3.82623,1.92783 "/>
     <polygon id="_431221448" class="fil1" points="3.73234,2.08163 7.51861,5.8679 7.54859,5.96042 3.76233,2.17415 "/>
     <polygon id="_431220848" class="fil1" points="4.56297,3.69296 8.34924,7.47923 8.34581,7.48404 8.342,7.48908 8.33783,7.49436 8.3333,7.49986 8.32842,7.50557 8.32321,7.51147 8.31767,7.51757 8.31181,7.52383 8.30566,7.53027 8.29921,7.53686 8.29248,7.54359 8.28548,7.55045 8.27821,7.55744 8.2707,7.56453 8.26295,7.57172 8.25498,7.57901 8.24678,7.58637 8.23838,7.59379 8.22979,7.60127 8.22101,7.60879 8.21206,7.61635 8.20294,7.62393 8.19368,7.63152 8.18428,7.6391 8.17474,7.64668 8.16509,7.65424 8.15532,7.66176 8.14546,7.66924 8.13552,7.67666 8.1255,7.68402 8.11541,7.6913 8.10527,7.69848 4.319,3.91221 4.32914,3.90502 4.33923,3.89774 4.34925,3.89039 4.3592,3.88296 4.36906,3.87548 4.37882,3.86796 4.38847,3.86041 4.39801,3.85283 4.40741,3.84524 4.41668,3.83765 4.42579,3.83007 4.43474,3.82252 4.44352,3.815 4.45211,3.80752 4.46052,3.80009 4.46871,3.79274 4.47669,3.78545 4.48443,3.77826 4.49194,3.77117 4.49921,3.76418 4.50621,3.75732 4.51294,3.75059 4.51939,3.744 4.52555,3.73756 4.5314,3.7313 4.53694,3.7252 4.54215,3.7193 4.54703,3.71359 4.55156,3.70809 4.55574,3.70281 4.55954,3.69776 "/>
     <polygon id="_431221496" class="fil1" points="3.5837,3.73303 7.36997,7.5193 7.36041,7.51755 7.35101,7.51538 7.3418,7.51281 7.33277,7.50983 7.32394,7.50647 7.31532,7.50274 7.30692,7.49864 7.29874,7.49419 7.29079,7.48939 7.28309,7.48427 7.27564,7.47881 7.26845,7.47306 7.26153,7.467 7.25489,7.46064 3.46863,3.67437 3.47526,3.68072 3.48218,3.68678 3.48937,3.69254 3.49682,3.698 3.50452,3.70312 3.51247,3.70792 3.52065,3.71237 3.52906,3.71647 3.53768,3.7202 3.5465,3.72356 3.55553,3.72654 3.56474,3.72911 3.57414,3.73128 "/>
     <polygon id="_431220944" class="fil1" points="3.40744,3.52277 7.1937,7.30904 7.18706,7.30581 7.18055,7.30236 7.17418,7.29869 7.16794,7.29481 7.16186,7.29072 7.15593,7.28642 7.15015,7.28193 7.14454,7.27724 7.1391,7.27236 7.13383,7.2673 3.34756,3.48103 3.35283,3.48609 3.35828,3.49097 3.36389,3.49565 3.36966,3.50015 3.37559,3.50444 3.38168,3.50854 3.38791,3.51242 3.39428,3.51609 3.4008,3.51954 "/>
     <polygon id="_431220872" class="fil1" points="3.79421,3.91214 7.58048,7.69841 7.57265,7.69287 7.56484,7.68727 7.55707,7.68162 7.54935,7.67593 7.54167,7.6702 7.53404,7.66443 7.52647,7.65864 7.51896,7.65282 7.51151,7.64698 7.50414,7.64114 7.49684,7.63528 7.48962,7.62942 7.48249,7.62356 7.47545,7.61771 7.4685,7.61187 7.46166,7.60604 7.45493,7.60024 7.4483,7.59447 7.44179,7.58872 7.4354,7.58302 7.42913,7.57736 7.423,7.57174 7.417,7.56618 7.41115,7.56067 7.40544,7.55523 7.39988,7.54985 7.39447,7.54455 3.6082,3.75828 3.61361,3.76358 3.61917,3.76896 3.62488,3.7744 3.63074,3.77991 3.63673,3.78547 3.64287,3.79109 3.64913,3.79675 3.65552,3.80245 3.66203,3.8082 3.66866,3.81397 3.67539,3.81977 3.68224,3.82559 3.68918,3.83144 3.69622,3.83729 3.70335,3.84315 3.71057,3.84901 3.71787,3.85487 3.72524,3.86071 3.73269,3.86655 3.7402,3.87237 3.74778,3.87816 3.7554,3.88393 3.76308,3.88966 3.77081,3.89535 3.77857,3.901 3.78638,3.90659 "/>
     <polygon id="_431221400" class="fil1" points="5.28,5.20011 9.06627,8.98638 6.6195,8.98638 2.83323,5.20011 "/>
     <polygon id="_431221544" class="fil1" points="4.13549,2.16224 7.92176,5.94852 7.9251,5.95281 7.92776,5.95731 7.92968,5.96198 7.93085,5.96681 4.14458,2.18054 4.14341,2.17571 4.14149,2.17104 4.13883,2.16654 "/>
     <polygon id="_431221016" class="fil1" points="4.67276,2.46103 8.45903,6.2473 8.48186,6.27471 8.50294,6.3021 8.52233,6.32929 8.54007,6.35608 8.5562,6.3823 8.57078,6.40774 8.58383,6.43222 8.59543,6.45556 8.6056,6.47757 8.6144,6.49806 8.62186,6.51685 8.62805,6.53373 8.63299,6.54854 8.63674,6.56107 8.63935,6.57115 8.64085,6.57857 8.6413,6.58317 8.64074,6.58474 4.85448,2.79847 4.85504,2.7969 4.85459,2.7923 4.85308,2.78487 4.85047,2.7748 4.84672,2.76227 4.84178,2.74746 4.83559,2.73057 4.82813,2.71179 4.81933,2.6913 4.80916,2.66929 4.79757,2.64595 4.78451,2.62146 4.76993,2.59602 4.7538,2.56981 4.73606,2.54302 4.71667,2.51583 4.69559,2.48844 "/>
     <polygon id="_431221160" class="fil1" points="4.85448,2.79847 8.64074,6.58474 8.64049,6.58733 8.64007,6.59008 8.6395,6.59298 8.63878,6.59603 8.63796,6.5992 8.63702,6.60246 8.63601,6.60582 8.63492,6.60924 8.63378,6.61272 8.63261,6.61623 8.63141,6.61976 8.63021,6.62329 8.62903,6.6268 8.62787,6.63027 8.62676,6.6337 8.62572,6.63706 4.83945,2.85078 4.8405,2.84743 4.8416,2.844 4.84276,2.84052 4.84394,2.83702 4.84514,2.83349 4.84634,2.82996 4.84751,2.82645 4.84865,2.82297 4.84974,2.81955 4.85076,2.81619 4.85169,2.81293 4.85252,2.80976 4.85323,2.80671 4.8538,2.80381 4.85422,2.80106 "/>
     <polygon id="_431222192" class="fil1" points="4.83945,2.85078 8.62572,6.63706 8.62482,6.63993 8.62391,6.64282 8.62298,6.64573 8.62204,6.64866 8.62108,6.65161 8.6201,6.65457 8.61911,6.65755 8.6181,6.66053 4.83183,2.87426 4.83284,2.87128 4.83383,2.8683 4.83481,2.86534 4.83577,2.86239 4.83672,2.85946 4.83765,2.85655 4.83856,2.85365 "/>
     <polygon id="_431221736" class="fil1" points="4.83183,2.87426 8.6181,6.66053 8.61716,6.6693 8.61586,6.67796 8.6142,6.68649 8.6122,6.69489 8.60986,6.70317 8.60719,6.71129 8.6042,6.71927 8.6009,6.72709 8.59729,6.73474 8.59338,6.74222 8.58918,6.74952 8.5847,6.75664 8.57994,6.76356 8.57491,6.77028 8.56963,6.77679 8.5641,6.78308 4.77783,2.99681 4.78337,2.99052 4.78865,2.98401 4.79367,2.97729 4.79843,2.97037 4.80291,2.96325 4.80711,2.95595 4.81102,2.94847 4.81463,2.94081 4.81793,2.933 4.82093,2.92502 4.82359,2.91689 4.82593,2.90862 4.82793,2.90022 4.82959,2.89169 4.83089,2.88303 "/>
     <polygon id="_431222096" class="fil1" points="4.78875,3.00793 8.57502,6.7942 8.57847,6.79807 8.58183,6.80204 8.58509,6.80608 8.58826,6.81021 8.59132,6.81442 8.59428,6.8187 8.59714,6.82306 8.59989,6.82749 8.60253,6.832 8.60506,6.83657 8.60748,6.84121 8.60979,6.84592 8.61198,6.8507 8.61404,6.85553 8.616,6.86043 8.61782,6.86539 8.61953,6.87041 8.62111,6.87548 8.62256,6.88061 8.62389,6.88578 8.62508,6.89102 8.62614,6.89629 8.62706,6.90162 8.62785,6.90699 8.6285,6.9124 8.629,6.91786 8.62937,6.92335 8.62959,6.92889 8.62966,6.93446 4.84339,3.14819 4.84332,3.14262 4.8431,3.13708 4.84274,3.13159 4.84223,3.12613 4.84158,3.12072 4.84079,3.11535 4.83987,3.11002 4.83881,3.10474 4.83762,3.09951 4.8363,3.09433 4.83484,3.08921 4.83326,3.08413 4.83156,3.07912 4.82973,3.07416 4.82778,3.06926 4.82571,3.06443 4.82352,3.05965 4.82121,3.05494 4.8188,3.0503 4.81626,3.04572 4.81362,3.04122 4.81087,3.03679 4.80802,3.03243 4.80506,3.02815 4.80199,3.02394 4.79883,3.01981 4.79556,3.01576 4.7922,3.0118 "/>
     <polygon id="_431221664" class="fil1" points="4.84339,3.14819 8.62966,6.93446 8.62961,6.93892 8.62947,6.94336 8.62924,6.94777 8.62891,6.95216 8.62849,6.95652 8.62798,6.96086 8.62738,6.96517 8.62669,6.96945 8.62592,6.9737 8.62506,6.97792 8.62411,6.98211 8.62307,6.98627 8.62196,6.9904 8.62076,6.99449 8.61949,6.99855 8.61813,7.00257 8.61669,7.00656 8.61517,7.0105 8.61358,7.01441 8.61191,7.01828 8.61017,7.02211 8.60835,7.02591 8.60646,7.02965 8.60449,7.03336 8.60246,7.03702 8.60035,7.04064 8.59818,7.04421 8.59593,7.04773 8.59363,7.05121 8.59125,7.05464 8.58881,7.05802 8.5863,7.06135 4.80004,3.27508 4.80254,3.27175 4.80498,3.26837 4.80736,3.26494 4.80967,3.26146 4.81191,3.25794 4.81408,3.25437 4.81619,3.25075 4.81822,3.24709 4.82019,3.24338 4.82208,3.23963 4.8239,3.23584 4.82565,3.23201 4.82731,3.22814 4.82891,3.22423 4.83042,3.22028 4.83186,3.2163 4.83322,3.21228 4.8345,3.20822 4.83569,3.20413 4.83681,3.2 4.83784,3.19584 4.83879,3.19165 4.83965,3.18743 4.84043,3.18318 4.84111,3.1789 4.84171,3.17459 4.84222,3.17025 4.84264,3.16589 4.84297,3.1615 4.8432,3.15709 4.84335,3.15265 "/>
     <polygon id="_431221856" class="fil1" points="4.80004,3.27508 8.5863,7.06135 8.58786,7.06564 8.58933,7.06996 8.59072,7.07433 8.59201,7.07873 8.5932,7.08318 8.59431,7.08766 8.59532,7.09217 8.59623,7.09672 8.59704,7.10131 8.59774,7.10593 8.59835,7.11058 8.59885,7.11527 8.59924,7.11998 8.59952,7.12473 8.59969,7.1295 8.59974,7.13431 4.81348,3.34804 4.81342,3.34323 4.81325,3.33846 4.81297,3.33371 4.81258,3.329 4.81208,3.32431 4.81148,3.31966 4.81077,3.31504 4.80996,3.31045 4.80905,3.3059 4.80804,3.30139 4.80694,3.29691 4.80574,3.29246 4.80445,3.28806 4.80307,3.28369 4.80159,3.27937 "/>
     <polygon id="_431221760" class="fil1" points="4.81348,3.34804 8.59974,7.13431 8.59959,7.14228 8.59915,7.15019 8.5984,7.15801 8.59737,7.16574 8.59606,7.17339 8.59448,7.18094 8.59262,7.18839 8.5905,7.19573 8.58812,7.20296 8.58548,7.21007 8.58259,7.21706 8.57946,7.22392 8.5761,7.23065 8.5725,7.23724 8.56867,7.24368 8.56463,7.24998 8.56036,7.25611 8.55589,7.26209 8.55121,7.2679 8.54633,7.27354 8.54126,7.27901 8.53599,7.28429 8.53055,7.28938 8.52492,7.29428 8.51913,7.29899 8.51317,7.30348 8.50704,7.30778 8.50076,7.31185 8.49433,7.3157 8.48775,7.31933 8.48104,7.32274 8.47419,7.3259 4.68792,3.53963 4.69477,3.53646 4.70148,3.53306 4.70806,3.52943 4.71449,3.52558 4.72077,3.5215 4.7269,3.51721 4.73286,3.51272 4.73865,3.50801 4.74428,3.50311 4.74972,3.49802 4.75499,3.49274 4.76006,3.48727 4.76494,3.48163 4.76962,3.47582 4.77409,3.46984 4.77836,3.4637 4.78241,3.45741 4.78623,3.45096 4.78983,3.44438 4.7932,3.43765 4.79633,3.43079 4.79921,3.4238 4.80185,3.41669 4.80423,3.40946 4.80635,3.40211 4.80821,3.39467 4.8098,3.38712 4.81111,3.37947 4.81213,3.37174 4.81288,3.36391 4.81333,3.35601 "/>
     <polygon id="_431222336" class="fil1" points="4.68792,3.53963 8.47419,7.3259 8.47283,7.33236 8.47127,7.33875 8.46952,7.34507 8.46757,7.3513 8.46544,7.35745 8.46312,7.36351 8.46063,7.36948 8.45795,7.37536 8.4551,7.38113 8.45208,7.38681 8.44889,7.39238 8.44554,7.39785 8.44203,7.4032 8.43836,7.40844 8.43454,7.41356 8.43056,7.41856 8.42644,7.42343 8.42217,7.42818 8.41777,7.43279 8.41322,7.43727 8.40855,7.44161 8.40374,7.44581 8.39881,7.44986 8.39375,7.45376 8.38857,7.45752 8.38328,7.46111 8.37787,7.46455 8.37235,7.46782 8.36672,7.47093 8.36099,7.47387 8.35516,7.47664 8.34924,7.47923 4.56297,3.69296 4.56889,3.69037 4.57472,3.6876 4.58045,3.68466 4.58608,3.68155 4.5916,3.67828 4.59701,3.67484 4.6023,3.67124 4.60748,3.66749 4.61254,3.66359 4.61747,3.65954 4.62228,3.65534 4.62696,3.651 4.6315,3.64652 4.63591,3.64191 4.64017,3.63716 4.6443,3.63229 4.64827,3.62729 4.65209,3.62217 4.65576,3.61693 4.65928,3.61157 4.66263,3.60611 4.66581,3.60054 4.66883,3.59486 4.67169,3.58909 4.67436,3.58321 4.67685,3.57724 4.67917,3.57118 4.6813,3.56503 4.68325,3.5588 4.685,3.55248 4.68656,3.54609 "/>
     <polygon id="_431222216" class="fil1" points="4.319,3.91221 8.10527,7.69848 8.10527,7.8062 4.319,4.01993 "/>
     <polygon id="_431221688" class="fil1" points="4.319,4.01993 8.10527,7.8062 8.10527,7.88567 4.319,4.09939 "/>
     <polygon id="_431222288" class="fil1" points="5.07732,4.51975 8.86359,8.30602 8.87248,8.31625 8.88112,8.32776 8.88954,8.34051 8.89773,8.35445 8.9057,8.36952 8.91347,8.38567 8.92105,8.40285 8.92843,8.42101 8.93563,8.44008 8.94267,8.46003 8.94954,8.48079 8.95625,8.50232 8.96282,8.52456 8.96926,8.54745 8.97557,8.57096 8.98176,8.59501 8.98783,8.61957 8.99381,8.64457 8.9997,8.66997 9.0055,8.69571 9.01122,8.72174 9.01688,8.74801 9.02248,8.77446 9.02804,8.80105 9.03355,8.82771 9.03903,8.8544 9.04449,8.88106 9.04993,8.90764 9.05537,8.93409 9.06081,8.96035 9.06627,8.98638 5.28,5.20011 5.27455,5.17408 5.2691,5.14782 5.26367,5.12137 5.25822,5.09479 5.25276,5.06813 5.24728,5.04144 5.24177,5.01478 5.23622,4.98819 5.23061,4.96174 5.22496,4.93547 5.21923,4.90944 5.21343,4.8837 5.20754,4.8583 5.20157,4.8333 5.19549,4.80874 5.1893,4.78469 5.18299,4.76118 5.17656,4.73828 5.16998,4.71605 5.16327,4.69452 5.1564,4.67376 5.14937,4.65381 5.14216,4.63474 5.13478,4.61658 5.1272,4.5994 5.11944,4.58325 5.11146,4.56818 5.10327,4.55424 5.09485,4.54149 5.08621,4.52998 "/>
    </g>
    <path id="_435566776" class="fil1" d="M4.7407 4.30035c0.203571,0.107598 0.285492,0.173232 0.327488,0.210524 0.0988228,0.0873465 0.153543,0.413067 0.211815,0.689236l-2.44677 0c0.0582677,-0.276169 0.112988,-0.60189 0.211799,-0.689236 0.078622,-0.0697598 0.177929,-0.12839 0.270075,-0.179539l-0.603472 -1.81683 -0.927575 0.300476 -0.042122 -0.0889055c-0.0649567,0.0212441 -0.135823,-0.0149528 -0.156693,-0.0798583l-0.0385748 -0.118409 0.102748 -0.033437 -0.0677087 -0.209291 2.03339 -0.658528 0.068063 0.209134 0.102791 -0.0332992 0.038189 0.118425c0.0245118,0.0752756 -0.0207795,0.137819 -0.0917953,0.160811l0.0299843 0.0925236 -0.925516 0.299807 0.59613 1.79486c0.0274213,-0.0140039 0.29252,-0.143453 0.293626,-0.139764 0.0218386,-0.0098189 0.0444134,-0.0198583 0.0676457,-0.0300984l0 -0.0790315 0 -0.107783c-0.0837126,-0.0588465 -0.162969,-0.127768 -0.210512,-0.179114 -0.102882,-0.0163976 -0.178299,-0.106004 -0.176264,-0.210256 -0.0715472,-0.0332323 -0.121461,-0.105437 -0.121465,-0.189303 0,-0.03 0.00648819,-0.0584961 0.0179488,-0.0843228 -0.0301142,-0.0361811 -0.0482717,-0.0825984 -0.0482717,-0.133205 0,-0.0549606 0.0215591,-0.104945 0.0564449,-0.142354 -0.0252244,-0.0345551 -0.0402913,-0.0769252 -0.0402913,-0.122803 0,-0.0118937 0.00264567,-0.043685 0.00535039,-0.0550906 0.0183583,-0.324122 0.397685,-0.565402 0.689236,-0.612067 0.00144488,-0.0276102 0.0409291,-0.0495984 0.0892402,-0.0495984 0.0464921,0 0.0848504,0.0203701 0.0889488,0.0465157 0.567882,0.0701969 0.721075,0.617929 0.709898,0.617929 -0.000870079,0.0132756 -0.00964961,0.034622 -0.0150276,0.052311 -0.0023622,0.00762598 -0.00490157,0.0155039 -0.00761417,0.0234764 -0.00404331,0.0470591 -0.0238346,0.0895709 -0.0540039,0.122551 0.040252,0.0380748 0.065563,0.0917677 0.065563,0.151378 0,0.0476929 -0.0163031,0.0916299 -0.0433583,0.126894 0.00854331,0.0227402 0.0134409,0.0472638 0.0134409,0.0729528 0,0.0854528 -0.0517953,0.15913 -0.125559,0.191591 -0.0134409,0.0693425 -0.0612362,0.126642 -0.124949,0.153331 -0.0344803,0.0499291 -0.135559,0.143063 -0.243965,0.219256l0 0.107713 0 0.0794685c0.00674016,0.0029685 0.0805945,0.0359055 0.0807047,0.0357992 0.114004,0.0514843 0.231346,0.104965 0.340988,0.165157z"/>
   </g>
  </g>
  <path class="fil2" d="M3.41333 0c1.88513,0 3.41333,1.5282 3.41333,3.41333 0,1.88513 -1.5282,3.41333 -3.41333,3.41333 -1.88513,0 -3.41333,-1.5282 -3.41333,-3.41333 0,-1.88513 1.5282,-3.41333 3.41333,-3.41333z"/>
  <path class="fil3" d="M4.44475 2.84794c0.115283,0 0.209307,-0.0940197 0.209307,-0.209307 0,-0.11526 -0.0940236,-0.20928 -0.209307,-0.20928 -0.11526,0 -0.209283,0.0940197 -0.209283,0.20928 0,0.115287 0.0940236,0.209307 0.209283,0.209307z"/>
  <path class="fil3" d="M4.23907 2.75592c0.115283,0 0.209283,-0.0940236 0.209283,-0.209291 0,-0.115283 -0.094,-0.209299 -0.209283,-0.209299 -0.115283,0 -0.209283,0.0940157 -0.209283,0.209299 0,0.115268 0.094,0.209291 0.209283,0.209291z"/>
  <path class="fil3" d="M3.92512 2.72344c0.115283,0 0.209283,-0.0940157 0.209283,-0.209299 0,-0.115264 -0.094,-0.209287 -0.209283,-0.209287 -0.115283,0 -0.209283,0.0940236 -0.209283,0.209287 0,0.115283 0.094,0.209299 0.209283,0.209299z"/>
  <path class="fil3" d="M3.64365 2.8263c0.115283,0 0.209299,-0.0940157 0.209299,-0.209299 0,-0.115287 -0.0940157,-0.209291 -0.209299,-0.209291 -0.115268,0 -0.209291,0.0940039 -0.209291,0.209291 0,0.115283 0.0940236,0.209299 0.209291,0.209299z"/>
  <path class="fil3" d="M3.48126 3.05904c0.115283,0 0.209303,-0.094 0.209303,-0.209283 0,-0.115283 -0.0940197,-0.209307 -0.209303,-0.209307 -0.11526,0 -0.209303,0.0940236 -0.209303,0.209307 0,0.115283 0.0940433,0.209283 0.209303,0.209283z"/>
  <path class="fil3" d="M4.62338 3.06445c0.115283,0 0.20928,-0.094 0.20928,-0.209283 0,-0.115283 -0.0939961,-0.209307 -0.20928,-0.209307 -0.115287,0 -0.209283,0.0940236 -0.209283,0.209307 0,0.115283 0.0939961,0.209283 0.209283,0.209283z"/>
  <path class="fil3" d="M4.6342 3.35675c0.115283,0 0.209283,-0.0940157 0.209283,-0.209299 0,-0.115268 -0.094,-0.209291 -0.209283,-0.209291 -0.115283,0 -0.209283,0.0940236 -0.209283,0.209291 0,0.115283 0.094,0.209299 0.209283,0.209299z"/>
  <path class="fil3" d="M4.48264 3.70858c0.115283,0 0.209307,-0.0940236 0.209307,-0.209283 0,-0.115283 -0.0940236,-0.209307 -0.209307,-0.209307 -0.11526,0 -0.209283,0.0940236 -0.209283,0.209307 0,0.11526 0.0940236,0.209283 0.209283,0.209283z"/>
  <path class="fil3" d="M3.46503 3.32428c0.115283,0 0.209307,-0.0940197 0.209307,-0.20928 0,-0.115283 -0.0940236,-0.209307 -0.209307,-0.209307 -0.115283,0 -0.209299,0.0940236 -0.209299,0.209307 0,0.11526 0.0940157,0.20928 0.209299,0.20928z"/>
  <path class="fil3" d="M3.61659 3.73567c0.115283,0 0.209283,-0.0940197 0.209283,-0.209303 0,-0.115287 -0.094,-0.209291 -0.209283,-0.209291 -0.115283,0 -0.209283,0.0940039 -0.209283,0.209291 0,0.115283 0.094,0.209303 0.209283,0.209303z"/>
  <path class="fil3" d="M4.60415 3.55669c0.115283,0 0.209307,-0.094 0.209307,-0.209283 0,-0.115283 -0.0940236,-0.20928 -0.209307,-0.20928 -0.11526,0 -0.209283,0.0939961 -0.209283,0.20928 0,0.115283 0.0940236,0.209283 0.209283,0.209283z"/>
  <path class="fil3" d="M3.49541 3.54199c0.115287,0 0.209283,-0.0940236 0.209283,-0.209307 0,-0.115283 -0.0939961,-0.209283 -0.209283,-0.209283 -0.115283,0 -0.209303,0.094 -0.209303,0.209283 0,0.115283 0.0940197,0.209307 0.209303,0.209307z"/>
  <path class="fil4" d="M3.81212 4.09091c-0.540705,0.237035 -0.70289,0.363406 -0.76702,0.420154 -0.0988071,0.0874331 -0.153457,0.413323 -0.211728,0.690031l1.22331 0 1.22331 0c-0.0582913,-0.276709 -0.112945,-0.602598 -0.211748,-0.690031 -0.0641142,-0.056748 -0.220374,-0.179858 -0.761063,-0.416921l-0.495071 -0.00323228z"/>
  <path class="fil4" d="M4.31921 3.61841l0 0.599346c-0.144398,0.17685 -0.380657,0.170728 -0.525059,0l0 -0.599346c0,-0.323634 0.525059,-0.323634 0.525059,0z"/>
  <path class="fil5" d="M4.31921 3.61841l0 0.401272c-0.0993465,0.0724173 -0.195102,0.112988 -0.262528,0.112988 -0.0674291,0 -0.163201,-0.0405709 -0.262531,-0.112988l0 -0.401272c0,-0.323634 0.525059,-0.323634 0.525059,0z"/>
  <path class="fil4" d="M4.05669 2.54236c-0.88115,0 -0.564272,1.06469 -0.506713,1.14944 0.0634646,0.0934646 0.36435,0.341189 0.506713,0.341189 0.142343,0 0.443228,-0.247724 0.506709,-0.341189 0.057563,-0.0847441 0.374421,-1.14944 -0.506709,-1.14944z"/>
  <path class="fil4" d="M3.38578 3.23117c0.0462283,-0.0152205 0.105067,0.0372559 0.131398,0.11722 0.0263268,0.0799606 0.0101929,0.157134 -0.0360551,0.17237 -0.0462283,0.0152205 -0.105067,-0.037252 -0.131398,-0.117213 -0.0263268,-0.0799803 -0.0101929,-0.157142 0.0360551,-0.172378z"/>
  <path class="fil4" d="M4.73769 3.23117c-0.046248,-0.0152205 -0.105071,0.0372559 -0.131417,0.11722 -0.0263307,0.0799606 -0.0101929,0.157134 0.0360472,0.17237 0.046252,0.0152205 0.105091,-0.037252 0.131421,-0.117213 0.0263268,-0.0799803 0.0101929,-0.157142 -0.0360512,-0.172378z"/>
  <path class="fil3" d="M3.98465 2.90207c0.115283,0 0.209307,-0.0939961 0.209307,-0.209283 0,-0.115283 -0.0940236,-0.209303 -0.209307,-0.209303 -0.11526,0 -0.20928,0.0940197 -0.20928,0.209303 0,0.115287 0.0940197,0.209283 0.20928,0.209283z"/>
  <path class="fil3" d="M4.27154 2.89124c0.115283,0 0.209303,-0.0940236 0.209303,-0.209283 0,-0.115283 -0.0940197,-0.209307 -0.209303,-0.209307 -0.115287,0 -0.209283,0.0940236 -0.209283,0.209307 0,0.11526 0.0939961,0.209283 0.209283,0.209283z"/>
  <path class="fil3" d="M3.77356 2.96703c0.115287,0 0.209303,-0.0940197 0.209303,-0.209303 0,-0.11528 -0.0940157,-0.209283 -0.209303,-0.209283 -0.115283,0 -0.209287,0.0940039 -0.209287,0.209283 0,0.115283 0.0940039,0.209303 0.209287,0.209303z"/>
  <path class="fil3" d="M3.61781 3.03983c0.0980748,0 0.178035,-0.0799843 0.178035,-0.178031 0,-0.0980709 -0.0799606,-0.178031 -0.178035,-0.178031 -0.0980669,0 -0.178028,0.0799606 -0.178028,0.178031 0,0.0980472 0.0799606,0.178031 0.178028,0.178031z"/>
  <path class="fil3" d="M4.43934 3.02115c0.115283,0 0.209307,-0.0939961 0.209307,-0.20928 0,-0.115283 -0.0940236,-0.209307 -0.209307,-0.209307 -0.115283,0 -0.209307,0.0940236 -0.209307,0.209307 0,0.115283 0.0940236,0.20928 0.209307,0.20928z"/>
  <path class="fil3" d="M4.60926 3.16307c0.0813228,0 0.147634,-0.0663228 0.147634,-0.14763 0,-0.0813228 -0.066311,-0.147634 -0.147634,-0.147634 -0.0813071,0 -0.147638,0.066311 -0.147638,0.147634 0,0.0813071 0.0663307,0.14763 0.147638,0.14763z"/>
  <path class="fil3" d="M3.52307 3.19139c0.0787047,0 0.142874,-0.0641732 0.142874,-0.142854 0,-0.0786772 -0.0641693,-0.14285 -0.142874,-0.14285 -0.0786772,0 -0.14285,0.0641732 -0.14285,0.14285 0,0.0786811 0.0641732,0.142854 0.14285,0.142854z"/>
  <path class="fil3" d="M3.49331 3.28883c0.0503583,0 0.091437,-0.0410787 0.091437,-0.0914409 0,-0.050378 -0.0410787,-0.091437 -0.091437,-0.091437 -0.0503622,0 -0.091437,0.0410591 -0.091437,0.091437 0,0.0503622 0.0410748,0.0914409 0.091437,0.0914409z"/>
  <path class="fil3" d="M4.63542 3.29965c0.0503622,0 0.0914409,-0.0410748 0.0914409,-0.0914331 0,-0.0503622 -0.0410787,-0.091437 -0.0914409,-0.091437 -0.0503543,0 -0.0914331,0.0410748 -0.0914331,0.091437 0,0.0503583 0.0410787,0.0914331 0.0914331,0.0914331z"/>
  <path class="fil3" d="M3.50414 3.37002c0.0354646,0 0.064374,-0.0289173 0.064374,-0.0643819 0,-0.0354409 -0.0289094,-0.0643504 -0.064374,-0.0643504 -0.0354488,0 -0.0643583,0.0289094 -0.0643583,0.0643504 0,0.0354646 0.0289094,0.0643819 0.0643583,0.0643819z"/>
  <path class="fil3" d="M4.62459 3.3646c0.0354646,0 0.064378,-0.0289094 0.064378,-0.064374 0,-0.0354409 -0.0289134,-0.0643583 -0.064378,-0.0643583 -0.0354449,0 -0.0643543,0.0289173 -0.0643543,0.0643583 0,0.0354646 0.0289094,0.064374 0.0643543,0.064374z"/>
  <path class="fil6" d="M3.77417 3.59865c0.0739173,0.0579882 0.491102,0.0547953 0.56502,0 -0.0642323,0.305118 -0.479831,0.314496 -0.56502,0z"/>
  <path class="fil7" d="M3.79415 4.09881c-0.526303,0.231949 -0.685657,0.356161 -0.749055,0.412256 -0.0988071,0.0874331 -0.153457,0.413323 -0.211728,0.690031l1.22331 0 1.22331 0c-0.0582913,-0.276709 -0.112945,-0.602598 -0.211748,-0.690031 -0.063622,-0.0563189 -0.218094,-0.178031 -0.749039,-0.411606 -0.104472,0.141531 -0.389571,0.16472 -0.525059,-0.000649606z"/>
  <path class="fil8" d="M3.72664 4.12888c-0.47263,0.212701 -0.620933,0.328559 -0.681543,0.382189 -0.0988071,0.0874331 -0.153457,0.413323 -0.211728,0.690031l1.22331 0 1.22331 0c-0.0582913,-0.276709 -0.112945,-0.602598 -0.211748,-0.690031 -0.0602874,-0.0533701 -0.202185,-0.165453 -0.668571,-0.37578 -0.208626,0.220114 -0.59987,0.149933 -0.673039,-0.00640945z"/>
  <path class="fil9" d="M3.3319 5.2011l0.0419134 0c-0.00187008,-0.186287 -0.0018937,-0.320555 -0.0018937,-0.320555 0,0 -0.0185591,0.139535 -0.0400197,0.320555z"/>
  <path class="fil9" d="M4.78146 5.2011l-0.0419134 0c0.00187402,-0.186287 0.00187402,-0.320555 0.00187402,-0.320555 0,0 0.0185551,0.139535 0.0400394,0.320555z"/>
  <path class="fil10" d="M4.05954 2.17378c0.283181,-0.0020748 0.721457,0.205311 0.795571,0.623453l-1.57822 0c0.0181417,-0.361748 0.486043,-0.621283 0.782654,-0.623453z"/>
  <path class="fil11" d="M4.0588 2.19281c-0.0843701,0.0312362 -0.165472,0.0743543 -0.237862,0.149028 -0.0725591,0.0748425 -0.136594,0.181587 -0.186768,0.340118l-0.0178622 -0.00596063c0.0511654,-0.161673 0.116799,-0.270874 0.191327,-0.347748 0.0746969,-0.0770512 0.158134,-0.121449 0.244846,-0.153555l0.0063189 0.0181181z"/>
  <path class="fil11" d="M4.0588 2.19281c0.0843701,0.0312362 0.165472,0.0743543 0.237862,0.149028 0.0725591,0.0748425 0.136598,0.181587 0.186768,0.340118l0.0178661 -0.00596063c-0.0511693,-0.161673 -0.116799,-0.270874 -0.191331,-0.347748 -0.0746969,-0.0770512 -0.15813,-0.121449 -0.244843,-0.153555l-0.00632283 0.0181181z"/>
  <ellipse class="fil12" cx="4.05564" cy="2.18352" rx="0.0893757" ry="0.0512248"/>
  <path class="fil13" d="M4.83948 2.84977c-0.0246732,0.0803031 -0.0650669,0.183988 -0.184421,0.211524 -0.127398,0.0293898 -0.426331,-0.0735433 -0.584752,-0.0735433 -0.1665,0 -0.41128,0.0918543 -0.54289,0.0596339 -0.13235,-0.0324016 -0.202402,-0.138598 -0.239043,-0.223217 -0.010874,-0.0251181 -0.0209331,-0.0291417 0.00419685,-0.0447047 0.313134,-0.193902 1.14592,-0.207874 1.56104,0.00956299 0.00491732,0.0108661 -0.00738976,0.038811 -0.014126,0.0607441z"/>
  <polygon class="fil7" points="2.68688,2.43844 2.81197,2.3977 3.74273,5.20209 3.60378,5.2011 "/>
  <polygon class="fil14" points="1.78388,2.81387 3.76236,2.17259 3.72652,2.06201 1.74803,2.70329 "/>
  <path class="fil15" d="M1.54667 2.52635l2.23913 -0.725756 0.0384016 0.118476c0.0211181,0.0651575 -0.0149134,0.135748 -0.0800748,0.156866l-2.00219 0.648957c-0.0651614,0.021122 -0.135752,-0.0149055 -0.15687,-0.0800669l-0.0384016 -0.118476z"/>
  <polygon class="fil7" points="1.58151,2.28377 3.61528,1.62457 3.68312,1.83387 1.64935,2.49307 "/>
 </g>
</svg>
